<svg xmlns="http://www.w3.org/2000/svg" version="1.1" xmlns:xlink="http://www.w3.org/1999/xlink" xmlns:svgjs="http://svgjs.dev/svgjs" width="1000" height="1000" viewBox="0 0 1000 1000"><rect width="1000" height="1000" fill="#ffffff"></rect><g transform="matrix(0.7,0,0,0.7,149.57575757575756,282.1265587044535)"><svg viewBox="0 0 396 247" data-background-color="#ffffff" preserveAspectRatio="xMidYMid meet" height="623" width="1000" xmlns="http://www.w3.org/2000/svg" xmlns:xlink="http://www.w3.org/1999/xlink"><g id="tight-bounds" transform="matrix(1,0,0,1,0.2400000000000091,-0.09999999999999432)"><svg viewBox="0 0 395.52 247.2" height="247.2" width="395.52"><g><svg></svg></g><g><svg viewBox="0 0 395.52 247.2" height="247.2" width="395.52"><g transform="matrix(1,0,0,1,0,89.85730935097337)"><svg viewBox="0 0 395.52 67.48538129805326" height="67.48538129805326" width="395.52"><g><svg viewBox="0 0 395.52 67.48538129805326" height="67.48538129805326" width="395.52"><g><svg viewBox="0 0 395.52 67.48538129805326" height="67.48538129805326" width="395.52"><g><svg viewBox="0 0 395.52 67.48538129805326" height="67.48538129805326" width="395.52"><g id="textblocktransform"><svg viewBox="0 0 395.52 67.48538129805326" height="67.48538129805326" width="395.52" id="textblock"><g><svg viewBox="0 0 395.52 67.48538129805326" height="67.48538129805326" width="395.52"><g transform="matrix(1,0,0,1,0,0)"><svg width="395.52" viewBox="-0.9500000476837158 -41.52000045776367 264.7900085449219 46.01000213623047" height="67.48538129805326" data-palette-color="#ffffff"><path d="M17.04-12.38L8.11-12.38 8.11-18.55 17.04-18.55Q19.07-18.55 20.32-19.21 21.58-19.87 22.17-21.02 22.75-22.17 22.75-23.66L22.75-23.66Q22.75-25.15 22.17-26.45 21.58-27.76 20.32-28.55 19.07-29.35 17.04-29.35L17.04-29.35 10.74-29.35 10.74 0 3.05 0 3.05-35.55 17.04-35.55Q21.26-35.55 24.29-34.01 27.32-32.47 28.93-29.8 30.54-27.12 30.54-23.71L30.54-23.71Q30.54-20.24 28.93-17.7 27.32-15.16 24.29-13.77 21.26-12.38 17.04-12.38L17.04-12.38ZM42.21-37.5L42.21 0 34.81 0 34.81-37.5 42.21-37.5ZM41.16-14.09L39.18-13.99Q39.18-17.75 40.41-20.65 41.65-23.56 43.89-25.23 46.14-26.9 49.14-26.9L49.14-26.9Q51.76-26.9 53.72-25.89 55.69-24.88 56.8-22.62 57.91-20.36 57.91-16.58L57.91-16.58 57.91 0 50.51 0 50.51-16.63Q50.51-18.29 50.03-19.23 49.56-20.17 48.64-20.54 47.73-20.92 46.41-20.92L46.41-20.92Q44.94-20.92 43.94-20.42 42.94-19.92 42.32-18.99 41.7-18.07 41.43-16.81 41.16-15.55 41.16-14.09L41.16-14.09ZM61.96-12.94L61.96-13.45Q61.96-17.31 63.42-20.35 64.89-23.39 67.7-25.15 70.5-26.9 74.51-26.9L74.51-26.9Q78.56-26.9 81.38-25.15 84.2-23.39 85.65-20.35 87.1-17.31 87.1-13.45L87.1-13.45 87.1-12.94Q87.1-9.11 85.65-6.05 84.2-3 81.39-1.26 78.58 0.49 74.56 0.49L74.56 0.49Q70.53 0.49 67.71-1.26 64.89-3 63.42-6.05 61.96-9.11 61.96-12.94L61.96-12.94ZM69.36-13.45L69.36-12.94Q69.36-10.86 69.86-9.16 70.36-7.45 71.49-6.45 72.63-5.44 74.56-5.44L74.56-5.44Q76.46-5.44 77.6-6.45 78.73-7.45 79.23-9.16 79.73-10.86 79.73-12.94L79.73-12.94 79.73-13.45Q79.73-15.48 79.23-17.2 78.73-18.92 77.6-19.95 76.46-20.97 74.51-20.97L74.51-20.97Q72.6-20.97 71.47-19.95 70.33-18.92 69.84-17.2 69.36-15.48 69.36-13.45L69.36-13.45ZM98.53-20.78L98.53 0 91.15 0 91.15-26.42 98.09-26.42 98.53-20.78ZM97.5-14.09L95.5-13.99Q95.5-17.99 96.79-20.89 98.09-23.78 100.43-25.34 102.78-26.9 105.88-26.9L105.88-26.9Q108.37-26.9 110.23-25.93 112.1-24.95 113.16-22.74 114.23-20.53 114.23-16.75L114.23-16.75 114.23 0 106.83 0 106.83-16.8Q106.83-18.43 106.35-19.32 105.88-20.21 104.97-20.57 104.07-20.92 102.75-20.92L102.75-20.92Q101.41-20.92 100.42-20.42 99.43-19.92 98.78-18.99 98.14-18.07 97.82-16.81 97.5-15.55 97.5-14.09L97.5-14.09ZM131.73 0.49L131.73 0.49Q127.55 0.49 124.59-1.25 121.62-2.98 120.05-5.88 118.47-8.79 118.47-12.3L118.47-12.3 118.47-13.26Q118.47-17.21 119.97-20.3 121.47-23.39 124.26-25.15 127.04-26.9 130.9-26.9L130.9-26.9Q134.73-26.9 137.34-25.29 139.96-23.68 141.3-20.76 142.64-17.85 142.64-13.92L142.64-13.92 142.64-10.79 121.57-10.79 121.57-15.75 135.39-15.75 135.39-16.33Q135.39-17.7 134.9-18.75 134.41-19.8 133.43-20.39 132.44-20.97 130.85-20.97L130.85-20.97Q129.04-20.97 127.94-19.95 126.85-18.92 126.34-17.19 125.84-15.45 125.84-13.26L125.84-13.26 125.84-12.3Q125.84-10.28 126.6-8.74 127.36-7.2 128.77-6.34 130.19-5.47 132.19-5.47L132.19-5.47Q134.07-5.47 135.71-6.16 137.34-6.86 138.49-8.35L138.49-8.35 142.06-4.27Q140.81-2.49 138.21-1 135.61 0.49 131.73 0.49ZM160.97-15.38L151.94-15.38 151.89-20.73 159.48-20.73Q162.39-20.73 163.78-21.81 165.17-22.9 165.17-24.95L165.17-24.95Q165.17-27.29 163.81-28.32 162.44-29.35 159.48-29.35L159.48-29.35 154.6-29.35 154.6 0 146.91 0 146.91-35.55 159.48-35.55Q165.76-35.55 169.3-33.15 172.84-30.76 172.84-25.78L172.84-25.78Q172.84-23.61 171.85-21.72 170.86-19.82 168.71-18.65 166.56-17.48 163.12-17.41L163.12-17.41 160.97-15.38ZM160.66 0L149.84 0 152.82-6.18 160.66-6.18Q163.42-6.18 164.68-7.43 165.95-8.69 165.95-10.57L165.95-10.57Q165.95-12.06 165.44-13.13 164.93-14.21 163.84-14.79 162.76-15.38 160.97-15.38L160.97-15.38 153.84-15.38 153.89-20.73 162.71-20.73 164.49-18.6Q167.79-18.68 169.79-17.52 171.79-16.36 172.69-14.48 173.6-12.6 173.6-10.5L173.6-10.5Q173.6-5.3 170.25-2.65 166.91 0 160.66 0L160.66 0ZM177.4-12.94L177.4-13.45Q177.4-17.31 178.87-20.35 180.33-23.39 183.14-25.15 185.95-26.9 189.95-26.9L189.95-26.9Q194-26.9 196.82-25.15 199.64-23.39 201.1-20.35 202.55-17.31 202.55-13.45L202.55-13.45 202.55-12.94Q202.55-9.11 201.1-6.05 199.64-3 196.84-1.26 194.03 0.49 190 0.49L190 0.49Q185.97 0.49 183.15-1.26 180.33-3 178.87-6.05 177.4-9.11 177.4-12.94L177.4-12.94ZM184.8-13.45L184.8-12.94Q184.8-10.86 185.3-9.16 185.8-7.45 186.94-6.45 188.07-5.44 190-5.44L190-5.44Q191.9-5.44 193.04-6.45 194.17-7.45 194.67-9.16 195.18-10.86 195.18-12.94L195.18-12.94 195.18-13.45Q195.18-15.48 194.67-17.2 194.17-18.92 193.04-19.95 191.9-20.97 189.95-20.97L189.95-20.97Q188.05-20.97 186.91-19.95 185.78-18.92 185.29-17.2 184.8-15.48 184.8-13.45L184.8-13.45ZM205.67-12.94L205.67-13.45Q205.67-17.31 207.14-20.35 208.6-23.39 211.41-25.15 214.22-26.9 218.22-26.9L218.22-26.9Q222.27-26.9 225.09-25.15 227.91-23.39 229.36-20.35 230.82-17.31 230.82-13.45L230.82-13.45 230.82-12.94Q230.82-9.11 229.36-6.05 227.91-3 225.1-1.26 222.3 0.49 218.27 0.49L218.27 0.49Q214.24 0.49 211.42-1.26 208.6-3 207.14-6.05 205.67-9.11 205.67-12.94L205.67-12.94ZM213.07-13.45L213.07-12.94Q213.07-10.86 213.57-9.16 214.07-7.45 215.2-6.45 216.34-5.44 218.27-5.44L218.27-5.44Q220.17-5.44 221.31-6.45 222.44-7.45 222.94-9.16 223.44-10.86 223.44-12.94L223.44-12.94 223.44-13.45Q223.44-15.48 222.94-17.2 222.44-18.92 221.31-19.95 220.17-20.97 218.22-20.97L218.22-20.97Q216.32-20.97 215.18-19.95 214.05-18.92 213.56-17.2 213.07-15.48 213.07-13.45L213.07-13.45ZM242.41-37.52L242.41 0 235.04 0 235.04-37.52 242.41-37.52ZM259.06-26.42L247.66-13.16 241.41-6.91 238.7-12.21 243.66-18.6 250.2-26.42 259.06-26.42ZM251.37 0L243.83-12.06 248.95-16.43 259.84 0 251.37 0Z" opacity="1" transform="matrix(1,0,0,1,0,0)" fill="#ffffff" class="undefined-text-0" data-fill-palette-color="primary" id="text-0"></path></svg></g></svg></g></svg></g></svg></g></svg></g></svg></g></svg></g><g mask="url(#972f8e62-f59b-45df-b5ce-5ef979d4d4ed)"><g transform="matrix(2.5941328374117316, 0, 0, 2.5941328374117316, 116.93601440949288, 0.9999999999999858)"><svg xmlns="http://www.w3.org/2000/svg" xmlns:xlink="http://www.w3.org/1999/xlink" version="1.1" x="0" y="0" viewBox="19.379079818725586 3.072000026702881 62.31291198730469 94.52098846435547" enable-background="new 0 0 100 100" xml:space="preserve" height="94.52098846435547" width="62.31291198730469" class="icon-none" data-fill-palette-color="accent" id="none"><path d="M73.854 7.813V3.072l-42.788 8.963c-12.435-1.057-11.678 9.918-11.678 9.918v44.843c0.139 11.492 11.678 10.379 11.678 10.379l3.992 0.904v19.506l5.559-6.844 5.468 6.852v-17.01l27.769 6.303V81.32h7.838V7.813H73.854zM44.777 93.578l-4.175-5.49-4.245 5.49V78.377l8.42 1.91V93.578zM72.461 84.754l-40.608-9.223c0 0-10.833 1.508-10.833-10.025V23.123c0 0-0.729-11.253 10.833-9.414l40.608-8.503V84.754zM80.355 79.982h-6.502v-2.066h3.516V11.247h-3.516V9.161h6.502V79.982z" fill="#ffa73c" data-fill-palette-color="accent"></path><path d="M30.46 17.136c0-0.297-0.241-0.538-0.538-0.538-0.297 0-0.538 0.241-0.538 0.538h-0.002v56.116h0.002c0 0.297 0.241 0.539 0.538 0.539 0.297 0 0.538-0.242 0.538-0.539h0.001V17.136H30.46z" fill="#ffa73c" data-fill-palette-color="accent"></path></svg></g></g><mask id="972f8e62-f59b-45df-b5ce-5ef979d4d4ed"><rect width="640" height="400" fill="white"></rect><g transform="matrix(1,0,0,1,0,89.85730935097337)"><svg viewBox="0 0 395.52 67.48538129805326" height="67.48538129805326" width="395.52"><g><svg viewBox="0 0 395.52 67.48538129805326" height="67.48538129805326" width="395.52"><g><svg viewBox="0 0 395.52 67.48538129805326" height="67.48538129805326" width="395.52"><g><svg viewBox="0 0 395.52 67.48538129805326" height="67.48538129805326" width="395.52"><g id="SvgjsG1199"><svg viewBox="0 0 395.52 67.48538129805326" height="67.48538129805326" width="395.52" id="SvgjsSvg1198"><g><svg viewBox="0 0 395.52 67.48538129805326" height="67.48538129805326" width="395.52"><g transform="matrix(1,0,0,1,0,0)"><svg width="395.52" viewBox="-0.9500000476837158 -41.52000045776367 264.7900085449219 46.01000213623047" height="67.48538129805326" data-palette-color="#ffffff"><path d="M17.04-12.38L8.11-12.38 8.11-18.55 17.04-18.55Q19.07-18.55 20.32-19.21 21.58-19.87 22.17-21.02 22.75-22.17 22.75-23.66L22.75-23.66Q22.75-25.15 22.17-26.45 21.58-27.76 20.32-28.55 19.07-29.35 17.04-29.35L17.04-29.35 10.74-29.35 10.74 0 3.05 0 3.05-35.55 17.04-35.55Q21.26-35.55 24.29-34.01 27.32-32.47 28.93-29.8 30.54-27.12 30.54-23.71L30.54-23.71Q30.54-20.24 28.93-17.7 27.32-15.16 24.29-13.77 21.26-12.38 17.04-12.38L17.04-12.38ZM42.21-37.5L42.21 0 34.81 0 34.81-37.5 42.21-37.5ZM41.16-14.09L39.18-13.99Q39.18-17.75 40.41-20.65 41.65-23.56 43.89-25.23 46.14-26.9 49.14-26.9L49.14-26.9Q51.76-26.9 53.72-25.89 55.69-24.88 56.8-22.62 57.91-20.36 57.91-16.58L57.91-16.58 57.91 0 50.51 0 50.51-16.63Q50.51-18.29 50.03-19.23 49.56-20.17 48.64-20.54 47.73-20.92 46.41-20.92L46.41-20.92Q44.94-20.92 43.94-20.42 42.94-19.92 42.32-18.99 41.7-18.07 41.43-16.81 41.16-15.55 41.16-14.09L41.16-14.09ZM61.96-12.94L61.96-13.45Q61.96-17.31 63.42-20.35 64.89-23.39 67.7-25.15 70.5-26.9 74.51-26.9L74.51-26.9Q78.56-26.9 81.38-25.15 84.2-23.39 85.65-20.35 87.1-17.31 87.1-13.45L87.1-13.45 87.1-12.94Q87.1-9.11 85.65-6.05 84.2-3 81.39-1.26 78.58 0.49 74.56 0.49L74.56 0.49Q70.53 0.49 67.71-1.26 64.89-3 63.42-6.05 61.96-9.11 61.96-12.94L61.96-12.94ZM69.36-13.45L69.36-12.94Q69.36-10.86 69.86-9.16 70.36-7.45 71.49-6.45 72.63-5.44 74.56-5.44L74.56-5.44Q76.46-5.44 77.6-6.45 78.73-7.45 79.23-9.16 79.73-10.86 79.73-12.94L79.73-12.94 79.73-13.45Q79.73-15.48 79.23-17.2 78.73-18.92 77.6-19.95 76.46-20.97 74.51-20.97L74.51-20.97Q72.6-20.97 71.47-19.95 70.33-18.92 69.84-17.2 69.36-15.48 69.36-13.45L69.36-13.45ZM98.53-20.78L98.53 0 91.15 0 91.15-26.42 98.09-26.42 98.53-20.78ZM97.5-14.09L95.5-13.99Q95.5-17.99 96.79-20.89 98.09-23.78 100.43-25.34 102.78-26.9 105.88-26.9L105.88-26.9Q108.37-26.9 110.23-25.93 112.1-24.95 113.16-22.74 114.23-20.53 114.23-16.75L114.23-16.75 114.23 0 106.83 0 106.83-16.8Q106.83-18.43 106.35-19.32 105.88-20.21 104.97-20.57 104.07-20.92 102.75-20.92L102.75-20.92Q101.41-20.92 100.42-20.42 99.43-19.92 98.78-18.99 98.14-18.07 97.82-16.81 97.5-15.55 97.5-14.09L97.5-14.09ZM131.73 0.49L131.73 0.49Q127.55 0.49 124.59-1.25 121.62-2.98 120.05-5.88 118.47-8.79 118.47-12.3L118.47-12.3 118.47-13.26Q118.47-17.21 119.97-20.3 121.47-23.39 124.26-25.15 127.04-26.9 130.9-26.9L130.9-26.9Q134.73-26.9 137.34-25.29 139.96-23.68 141.3-20.76 142.64-17.85 142.64-13.92L142.64-13.92 142.64-10.79 121.57-10.79 121.57-15.75 135.39-15.75 135.39-16.33Q135.39-17.7 134.9-18.75 134.41-19.8 133.43-20.39 132.44-20.97 130.85-20.97L130.85-20.97Q129.04-20.97 127.94-19.95 126.85-18.92 126.34-17.19 125.84-15.45 125.84-13.26L125.84-13.26 125.84-12.3Q125.84-10.28 126.6-8.74 127.36-7.2 128.77-6.34 130.19-5.47 132.19-5.47L132.19-5.47Q134.07-5.47 135.71-6.16 137.34-6.86 138.49-8.35L138.49-8.35 142.06-4.27Q140.81-2.49 138.21-1 135.61 0.49 131.73 0.49ZM160.97-15.38L151.94-15.38 151.89-20.73 159.48-20.73Q162.39-20.73 163.78-21.81 165.17-22.9 165.17-24.95L165.17-24.95Q165.17-27.29 163.81-28.32 162.44-29.35 159.48-29.35L159.48-29.35 154.6-29.35 154.6 0 146.91 0 146.91-35.55 159.48-35.55Q165.76-35.55 169.3-33.15 172.84-30.76 172.84-25.78L172.84-25.78Q172.84-23.61 171.85-21.72 170.86-19.82 168.71-18.65 166.56-17.48 163.12-17.41L163.12-17.41 160.97-15.38ZM160.66 0L149.84 0 152.82-6.18 160.66-6.18Q163.42-6.18 164.68-7.43 165.95-8.69 165.95-10.57L165.95-10.57Q165.95-12.06 165.44-13.13 164.93-14.21 163.84-14.79 162.76-15.38 160.97-15.38L160.97-15.38 153.84-15.38 153.89-20.73 162.71-20.73 164.49-18.6Q167.79-18.68 169.79-17.52 171.79-16.36 172.69-14.48 173.6-12.6 173.6-10.5L173.6-10.5Q173.6-5.3 170.25-2.65 166.91 0 160.66 0L160.66 0ZM177.4-12.94L177.4-13.45Q177.4-17.31 178.87-20.35 180.33-23.39 183.14-25.15 185.95-26.9 189.95-26.9L189.95-26.9Q194-26.9 196.82-25.15 199.64-23.39 201.1-20.35 202.55-17.31 202.55-13.45L202.55-13.45 202.55-12.94Q202.55-9.11 201.1-6.05 199.64-3 196.84-1.26 194.03 0.49 190 0.49L190 0.49Q185.97 0.49 183.15-1.26 180.33-3 178.87-6.05 177.4-9.11 177.4-12.94L177.4-12.94ZM184.8-13.45L184.8-12.94Q184.8-10.86 185.3-9.16 185.8-7.45 186.94-6.45 188.07-5.44 190-5.44L190-5.44Q191.9-5.44 193.04-6.45 194.17-7.45 194.67-9.16 195.18-10.86 195.18-12.94L195.18-12.94 195.18-13.45Q195.18-15.48 194.67-17.2 194.17-18.92 193.04-19.95 191.9-20.97 189.95-20.97L189.95-20.97Q188.05-20.97 186.91-19.95 185.78-18.92 185.29-17.2 184.8-15.48 184.8-13.45L184.8-13.45ZM205.67-12.94L205.67-13.45Q205.67-17.31 207.14-20.35 208.6-23.39 211.41-25.15 214.22-26.9 218.22-26.9L218.22-26.9Q222.27-26.9 225.09-25.15 227.91-23.39 229.36-20.35 230.82-17.31 230.82-13.45L230.82-13.45 230.82-12.94Q230.82-9.11 229.36-6.05 227.91-3 225.1-1.26 222.3 0.49 218.27 0.49L218.27 0.49Q214.24 0.49 211.42-1.26 208.6-3 207.14-6.05 205.67-9.11 205.67-12.94L205.67-12.94ZM213.07-13.45L213.07-12.94Q213.07-10.86 213.57-9.16 214.07-7.45 215.2-6.45 216.34-5.44 218.27-5.44L218.27-5.44Q220.17-5.44 221.31-6.45 222.44-7.45 222.94-9.16 223.44-10.86 223.44-12.94L223.44-12.94 223.44-13.45Q223.44-15.48 222.94-17.2 222.44-18.92 221.31-19.95 220.17-20.97 218.22-20.97L218.22-20.97Q216.32-20.97 215.18-19.95 214.05-18.92 213.56-17.2 213.07-15.48 213.07-13.45L213.07-13.45ZM242.41-37.52L242.41 0 235.04 0 235.04-37.52 242.41-37.52ZM259.06-26.42L247.66-13.16 241.41-6.91 238.7-12.21 243.66-18.6 250.2-26.42 259.06-26.42ZM251.37 0L243.83-12.06 248.95-16.43 259.84 0 251.37 0Z" opacity="1" transform="matrix(1,0,0,1,0,0)" fill="#ffffff" class="undefined-text-0" data-fill-palette-color="primary" id="SvgjsPath1197" stroke-width="7" stroke="black" stroke-linejoin="round"></path></svg></g></svg></g></svg></g></svg></g></svg></g></svg></g></svg></g></mask></svg></g><defs></defs></svg><rect width="395.52" height="247.2" fill="none" stroke="none" visibility="hidden"></rect></g></svg></g></svg>